<mxfile host="Electron" modified="2023-04-26T23:26:04.336Z" agent="Mozilla/5.0 (Macintosh; Intel Mac OS X 10_15_7) AppleWebKit/537.36 (KHTML, like Gecko) draw.io/21.2.1 Chrome/112.0.5615.87 Electron/24.1.2 Safari/537.36" etag="sQOv_-BmK8mJQJYwHyf9" version="21.2.1" type="device" pages="2">
  <diagram id="n-x54qgWscSKkXu7yztT" name="Metadata">
    <mxGraphModel dx="654" dy="412" grid="1" gridSize="10" guides="1" tooltips="1" connect="1" arrows="1" fold="1" page="1" pageScale="1" pageWidth="800" pageHeight="800" math="0" shadow="0">
      <root>
        <mxCell id="0" />
        <mxCell id="1" parent="0" />
        <mxCell id="vtB3B4zhmJX2FN3hhUvI-1" value="Metadata" style="shape=table;startSize=30;container=1;collapsible=0;childLayout=tableLayout;fontSize=10;whiteSpace=wrap;" parent="1" vertex="1">
          <mxGeometry x="20" y="30" width="300" height="110" as="geometry" />
        </mxCell>
        <mxCell id="vtB3B4zhmJX2FN3hhUvI-2" value="" style="shape=tableRow;horizontal=0;startSize=0;swimlaneHead=0;swimlaneBody=0;strokeColor=inherit;top=0;left=0;bottom=0;right=0;collapsible=0;dropTarget=0;fillColor=none;points=[[0,0.5],[1,0.5]];portConstraint=eastwest;fontSize=8;" parent="vtB3B4zhmJX2FN3hhUvI-1" vertex="1">
          <mxGeometry y="30" width="300" height="40" as="geometry" />
        </mxCell>
        <mxCell id="vtB3B4zhmJX2FN3hhUvI-3" value="Date Created" style="shape=partialRectangle;html=1;whiteSpace=wrap;connectable=0;strokeColor=inherit;overflow=hidden;fillColor=none;top=0;left=0;bottom=0;right=0;pointerEvents=1;fontSize=8;" parent="vtB3B4zhmJX2FN3hhUvI-2" vertex="1">
          <mxGeometry width="60" height="40" as="geometry">
            <mxRectangle width="60" height="40" as="alternateBounds" />
          </mxGeometry>
        </mxCell>
        <mxCell id="vtB3B4zhmJX2FN3hhUvI-4" value="Date Updated" style="shape=partialRectangle;html=1;whiteSpace=wrap;connectable=0;strokeColor=inherit;overflow=hidden;fillColor=none;top=0;left=0;bottom=0;right=0;pointerEvents=1;fontSize=8;" parent="vtB3B4zhmJX2FN3hhUvI-2" vertex="1">
          <mxGeometry x="60" width="60" height="40" as="geometry">
            <mxRectangle width="60" height="40" as="alternateBounds" />
          </mxGeometry>
        </mxCell>
        <mxCell id="vtB3B4zhmJX2FN3hhUvI-5" value="Diagram Version" style="shape=partialRectangle;html=1;whiteSpace=wrap;connectable=0;strokeColor=inherit;overflow=hidden;fillColor=none;top=0;left=0;bottom=0;right=0;pointerEvents=1;fontSize=8;" parent="vtB3B4zhmJX2FN3hhUvI-2" vertex="1">
          <mxGeometry x="120" width="60" height="40" as="geometry">
            <mxRectangle width="60" height="40" as="alternateBounds" />
          </mxGeometry>
        </mxCell>
        <mxCell id="vtB3B4zhmJX2FN3hhUvI-6" value="File Format" style="shape=partialRectangle;html=1;whiteSpace=wrap;connectable=0;strokeColor=inherit;overflow=hidden;fillColor=none;top=0;left=0;bottom=0;right=0;pointerEvents=1;fontSize=8;" parent="vtB3B4zhmJX2FN3hhUvI-2" vertex="1">
          <mxGeometry x="180" width="60" height="40" as="geometry">
            <mxRectangle width="60" height="40" as="alternateBounds" />
          </mxGeometry>
        </mxCell>
        <mxCell id="vtB3B4zhmJX2FN3hhUvI-7" value="Stencils Source/Version" style="shape=partialRectangle;html=1;whiteSpace=wrap;connectable=0;strokeColor=inherit;overflow=hidden;fillColor=none;top=0;left=0;bottom=0;right=0;pointerEvents=1;fontSize=8;" parent="vtB3B4zhmJX2FN3hhUvI-2" vertex="1">
          <mxGeometry x="240" width="60" height="40" as="geometry">
            <mxRectangle width="60" height="40" as="alternateBounds" />
          </mxGeometry>
        </mxCell>
        <mxCell id="vtB3B4zhmJX2FN3hhUvI-8" style="shape=tableRow;horizontal=0;startSize=0;swimlaneHead=0;swimlaneBody=0;strokeColor=inherit;top=0;left=0;bottom=0;right=0;collapsible=0;dropTarget=0;fillColor=none;points=[[0,0.5],[1,0.5]];portConstraint=eastwest;fontSize=8;" parent="vtB3B4zhmJX2FN3hhUvI-1" vertex="1">
          <mxGeometry y="70" width="300" height="40" as="geometry" />
        </mxCell>
        <mxCell id="vtB3B4zhmJX2FN3hhUvI-9" value="xx/yy/202x" style="shape=partialRectangle;html=1;whiteSpace=wrap;connectable=0;strokeColor=inherit;overflow=hidden;fillColor=none;top=0;left=0;bottom=0;right=0;pointerEvents=1;fontSize=8;" parent="vtB3B4zhmJX2FN3hhUvI-8" vertex="1">
          <mxGeometry width="60" height="40" as="geometry">
            <mxRectangle width="60" height="40" as="alternateBounds" />
          </mxGeometry>
        </mxCell>
        <mxCell id="vtB3B4zhmJX2FN3hhUvI-10" value="xx/yy/202x" style="shape=partialRectangle;html=1;whiteSpace=wrap;connectable=0;strokeColor=inherit;overflow=hidden;fillColor=none;top=0;left=0;bottom=0;right=0;pointerEvents=1;fontSize=8;" parent="vtB3B4zhmJX2FN3hhUvI-8" vertex="1">
          <mxGeometry x="60" width="60" height="40" as="geometry">
            <mxRectangle width="60" height="40" as="alternateBounds" />
          </mxGeometry>
        </mxCell>
        <mxCell id="vtB3B4zhmJX2FN3hhUvI-11" value="1.0.0" style="shape=partialRectangle;html=1;whiteSpace=wrap;connectable=0;strokeColor=inherit;overflow=hidden;fillColor=none;top=0;left=0;bottom=0;right=0;pointerEvents=1;fontSize=8;" parent="vtB3B4zhmJX2FN3hhUvI-8" vertex="1">
          <mxGeometry x="120" width="60" height="40" as="geometry">
            <mxRectangle width="60" height="40" as="alternateBounds" />
          </mxGeometry>
        </mxCell>
        <mxCell id="vtB3B4zhmJX2FN3hhUvI-12" value="&lt;a style=&quot;border-color: var(--border-color);&quot; href=&quot;https://github.ibm.com/ibmcloud/ibm-cloud-stencils#temporary--custom-build&quot;&gt;Build&lt;/a&gt;" style="shape=partialRectangle;html=1;whiteSpace=wrap;connectable=0;strokeColor=inherit;overflow=hidden;fillColor=none;top=0;left=0;bottom=0;right=0;pointerEvents=1;fontSize=8;" parent="vtB3B4zhmJX2FN3hhUvI-8" vertex="1">
          <mxGeometry x="180" width="60" height="40" as="geometry">
            <mxRectangle width="60" height="40" as="alternateBounds" />
          </mxGeometry>
        </mxCell>
        <mxCell id="vtB3B4zhmJX2FN3hhUvI-13" value="&lt;a style=&quot;border-color: var(--border-color);&quot; href=&quot;https://github.ibm.com/ibmcloud/ibm-cloud-stencils/releases/tag/v30.2.56-ibm2beta2&quot;&gt;v30.2.56-ibm2beta2&lt;/a&gt;" style="shape=partialRectangle;html=1;whiteSpace=wrap;connectable=0;strokeColor=inherit;overflow=hidden;fillColor=none;top=0;left=0;bottom=0;right=0;pointerEvents=1;fontSize=8;" parent="vtB3B4zhmJX2FN3hhUvI-8" vertex="1">
          <mxGeometry x="240" width="60" height="40" as="geometry">
            <mxRectangle width="60" height="40" as="alternateBounds" />
          </mxGeometry>
        </mxCell>
        <mxCell id="KF8cAYF_pw24E9G2iWH9-2" value="&lt;font style=&quot;font-size: 10px;&quot;&gt;Go to&amp;nbsp;&lt;span style=&quot;background-color: initial;&quot;&gt;&lt;a href=&quot;https://github.ibm.com/ibmcloud/ibm-cloud-stencils#tools--conventions&quot;&gt;Tools &amp;amp; Conventions &amp;gt; Diagrams Metadata&lt;/a&gt;&amp;nbsp;for more information&lt;/span&gt;&lt;br&gt;&lt;/font&gt;" style="text;html=1;strokeColor=none;fillColor=none;align=center;verticalAlign=middle;whiteSpace=wrap;rounded=0;fontSize=10;" parent="1" vertex="1">
          <mxGeometry x="20" y="150" width="240" height="50" as="geometry" />
        </mxCell>
      </root>
    </mxGraphModel>
  </diagram>
  <diagram id="Sw7m3gH3_86LmOvQ2xe0" name="Diagram">
    <mxGraphModel dx="1242" dy="1582" grid="1" gridSize="10" guides="1" tooltips="1" connect="1" arrows="1" fold="1" page="1" pageScale="1" pageWidth="800" pageHeight="800" math="0" shadow="0">
      <root>
        <mxCell id="0" />
        <mxCell id="1" parent="0" />
        <mxCell id="GHIQly3u0VGrO4A0WHNo-2" value="Metadata" parent="0" />
        <mxCell id="GHIQly3u0VGrO4A0WHNo-1" value="&lt;font style=&quot;font-size: 16px;&quot;&gt;See &lt;i&gt;&lt;b&gt;Metadata&lt;/b&gt;&lt;/i&gt; tab for more details about the format and source material of this diagram. To hide this, go to &lt;b&gt;&lt;i&gt;View, Layers&lt;/i&gt; &lt;/b&gt;and un-check &lt;b&gt;&lt;i&gt;Metadata Instructions&lt;/i&gt;&lt;/b&gt;&lt;/font&gt;" style="shape=note;whiteSpace=wrap;html=1;backgroundOutline=1;fontColor=#000000;darkOpacity=0.05;fillColor=#FFF9B2;strokeColor=none;fillStyle=solid;direction=west;gradientDirection=north;gradientColor=#FFF2A1;shadow=1;size=20;pointerEvents=1;fontSize=10;" parent="GHIQly3u0VGrO4A0WHNo-2" vertex="1">
          <mxGeometry x="280" y="-470" width="240" height="190" as="geometry" />
        </mxCell>
      </root>
    </mxGraphModel>
  </diagram>
</mxfile>
